<svg version="1.2" xmlns="http://www.w3.org/2000/svg" viewBox="0 0 518 120" width="518" height="120">
	<title>logo-svg</title>
	<style>
		tspan { white-space:pre } 
		.s0 { fill: #f0584b } 
		.s1 { fill: #4457f3 } 
		.t2 { font-size: 87px;fill: #000000;font-weight: 600;font-family: "Poppins-SemiBold", "Poppins" } 
	</style>
	<path id="Layer" class="s0" d="m0 27.7c0-7.8 8.5-12.6 15.1-8.6l25.2 15.1c6 3.6 9.7 10.1 9.7 17.1v17.4c0 7-3.7 13.5-9.7 17.1l-25.2 15.1c-6.6 4-15.1-0.8-15.1-8.6z"/>
	<path id="Layer" class="s1" d="m103.9 0c5.3 0 7.9 6.4 4.3 10.2l-13.3 13.7c-3.8 3.9-9 6.1-14.4 6.1h-25c-3.6 0-7.1-1-10.3-2.9l-26.6-16c-5.2-3.1-3-11.1 3.1-11.1z"/>
	<path id="Layer" class="s1" d="m103.9 120c5.3 0 7.9-6.4 4.3-10.2l-13.3-13.7c-3.8-3.9-9-6.1-14.4-6.1h-25c-3.6 0-7.1 1-10.3 2.9l-26.6 16c-5.2 3.1-3 11.1 3.1 11.1z"/>
	<path id="Layer" class="s0" d="m56 60c0-8.3 6.7-15 15-15 8.3 0 15 6.7 15 15 0 8.3-6.7 15-15 15-8.3 0-15-6.7-15-15z"/>
	<text id="Eventer" style="transform: matrix(1,0,0,1,134,87)" >
		<tspan x="0" y="0" class="t2">E</tspan><tspan  y="0" class="t2">v</tspan><tspan  y="0" class="t2">e</tspan><tspan  y="0" class="t2">n</tspan><tspan  y="0" class="t2">t</tspan><tspan  y="0" class="t2">e</tspan><tspan  y="0" class="t2">r
</tspan>
	</text>
</svg>